<svg xmlns="http://www.w3.org/2000/svg" width="1024" height="1024" viewBox="0 0 1024 1024" version="1.1">
	<path d="M 667 80.678 C 666.175 80.964, 661.141 82.953, 655.813 85.099 C 650.486 87.245, 644.861 89.005, 643.313 89.012 C 639.115 89.029, 629.387 97.439, 628.003 102.250 C 627.409 104.313, 626.519 106, 626.025 106 C 625.531 106, 622.789 110.162, 619.932 115.250 C 617.075 120.338, 613.872 125.728, 612.815 127.229 C 611.378 129.270, 610.970 131.286, 611.197 135.229 C 611.479 140.132, 611.674 140.494, 614 140.410 C 615.375 140.361, 617.175 140.136, 618 139.910 C 619.297 139.556, 619.580 143.227, 620.093 167 C 620.824 200.873, 621.892 210.036, 626.967 226 C 632.173 242.376, 636.720 257.483, 637.993 262.634 C 638.555 264.907, 639.686 267.325, 640.507 268.006 C 641.491 268.822, 642.021 271.164, 642.062 274.872 C 642.096 277.968, 642.472 283.875, 642.898 288 C 644.173 300.345, 640.654 325.513, 636.467 334 C 635.246 336.475, 633.925 339.987, 633.532 341.804 C 633.139 343.622, 630.241 348.347, 627.092 352.304 C 623.943 356.262, 620.302 361.300, 619.001 363.500 C 616.312 368.047, 610.096 375.900, 605.268 380.850 C 603.470 382.693, 602 384.575, 602 385.033 C 602 385.491, 601.100 386.151, 600 386.500 C 598.900 386.849, 598 387.771, 598 388.548 C 598 389.326, 596.987 390.189, 595.750 390.467 C 594.513 390.745, 580.076 391.091, 563.668 391.236 C 536.593 391.476, 533.718 391.662, 532.558 393.250 C 531.678 394.454, 529.910 395.002, 526.890 395.008 C 520.930 395.019, 499.156 400.514, 496.026 402.798 C 494.637 403.812, 491.123 405.411, 488.217 406.352 C 476.360 410.191, 462.161 416.165, 460.480 418.022 C 459.496 419.110, 458.151 420, 457.493 420 C 454.220 420, 422.031 437.460, 413.709 443.750 C 410.616 446.087, 407.617 448, 407.043 448 C 406.469 448, 406 448.367, 406 448.815 C 406 449.263, 404.484 450.353, 402.630 451.236 C 400.777 452.120, 395.842 455.241, 391.663 458.172 C 387.485 461.102, 381.914 464.744, 379.283 466.265 C 373.150 469.811, 362.084 477.510, 359.500 480.029 C 358.400 481.102, 353.675 485.096, 349 488.906 C 339.769 496.429, 335 501.200, 335 502.910 C 335 503.510, 334.311 504, 333.469 504 C 332.626 504, 331.692 504.640, 331.391 505.422 C 331.091 506.205, 329.080 507.551, 326.923 508.414 C 324.765 509.277, 323 510.449, 323 511.017 C 323 511.585, 321.875 512.477, 320.500 513 C 319.125 513.523, 318 514.341, 318 514.819 C 318 515.296, 315.747 517.220, 312.993 519.093 C 310.239 520.967, 307.733 523.292, 307.422 524.261 C 307.112 525.229, 305.540 526.704, 303.929 527.537 C 302.318 528.370, 301 529.459, 301 529.958 C 301 530.457, 300.134 531.140, 299.076 531.476 C 298.017 531.812, 295.480 533.221, 293.437 534.607 C 291.395 535.993, 287.251 538.447, 284.230 540.059 C 281.208 541.671, 276.433 544.803, 273.618 547.019 C 270.803 549.234, 265.323 553.399, 261.439 556.274 C 254.099 561.706, 244.220 570.033, 238.137 575.914 C 232.786 581.087, 228.029 584, 224.932 584 C 222.065 584, 220.018 585.516, 217.316 589.640 C 216.466 590.938, 214.788 592, 213.588 592 C 212.380 592, 209.753 593.693, 207.703 595.792 C 204.332 599.244, 204 600.082, 204 605.137 C 204 611.380, 205.839 614, 210.222 614 C 213.481 614, 214.013 615.478, 213.286 622.521 C 212.711 628.089, 212.776 628.280, 216.357 631.561 C 218.369 633.404, 221.544 635.199, 223.412 635.549 C 227.442 636.305, 237.556 634.240, 239.134 632.338 C 239.745 631.602, 241.554 631, 243.155 631 C 244.755 631, 247.680 630.325, 249.654 629.500 C 251.629 628.675, 254.616 628, 256.293 628 C 257.970 628, 260.053 627.389, 260.921 626.643 C 265.578 622.640, 279.272 621.107, 313 620.811 C 339.454 620.579, 341.090 620.678, 356 623.410 C 364.525 624.973, 373.847 626.554, 376.716 626.924 C 379.584 627.295, 382.254 627.921, 382.649 628.315 C 383.634 629.300, 379.833 634.277, 377.172 635.487 C 375.977 636.030, 375 637.054, 375 637.762 C 375 638.470, 373.875 639.477, 372.500 640 C 371.125 640.523, 370 641.528, 370 642.235 C 370 642.941, 369.100 644.081, 368 644.768 C 365.608 646.262, 365.356 650.754, 367.406 655.349 C 368.180 657.082, 369.069 659.625, 369.383 661 C 370.620 666.412, 388.514 681.619, 399.532 686.620 C 402.814 688.110, 405.725 689.646, 406 690.034 C 406.275 690.421, 408.907 692.213, 411.849 694.015 C 414.790 695.818, 418.615 698.609, 420.349 700.218 C 422.082 701.827, 424.850 703.834, 426.500 704.678 C 428.150 705.522, 431.915 707.851, 434.867 709.853 L 440.234 713.494 439.731 719.757 C 439.455 723.201, 438.787 726.578, 438.247 727.260 C 435.375 730.891, 433.014 742.080, 432.393 755 C 431.850 766.313, 432.078 770.282, 433.800 779.500 C 434.930 785.550, 436.135 795.141, 436.478 800.813 C 436.820 806.485, 437.499 812.110, 437.985 813.313 C 438.948 815.692, 441.008 856.242, 441.003 872.711 C 441 881.754, 441.237 883.143, 443.071 884.852 C 444.551 886.230, 445.051 887.742, 444.821 890.141 L 444.500 893.500 425.711 894 C 411.032 894.391, 406.733 894.808, 406.054 895.909 C 403.628 899.844, 408.819 901.986, 420.899 902.035 C 426.463 902.058, 430.383 902.576, 432 903.500 C 433.375 904.286, 436.043 904.945, 437.929 904.965 C 439.815 904.984, 442.938 905.562, 444.869 906.250 C 448.628 907.589, 456.422 914.862, 459.182 919.608 C 460.165 921.299, 463.696 924.046, 467.682 926.223 C 471.432 928.270, 476.291 930.920, 478.481 932.111 C 480.670 933.302, 485.504 935.311, 489.223 936.576 C 492.942 937.841, 496.988 939.578, 498.215 940.438 C 499.441 941.297, 501.476 942, 502.736 942 C 503.996 942, 505.884 942.535, 506.932 943.190 C 509.637 944.879, 512 942.658, 512 938.425 C 512 935.178, 511.733 934.968, 501.406 930.047 C 495.579 927.271, 490.564 925, 490.262 925 C 489.960 925, 485.974 922.750, 481.405 920 C 476.836 917.250, 472.625 915, 472.049 915 C 470.429 915, 470.810 912.010, 472.513 911.357 C 473.345 911.037, 474.632 911.280, 475.374 911.895 C 477.052 913.288, 496.824 915.107, 516 915.633 C 523.975 915.851, 531.400 916.437, 532.500 916.934 C 537.450 919.171, 541.108 919.021, 545.585 916.397 C 550.370 913.593, 550.542 913.291, 548.718 910.911 C 546.854 908.478, 542.874 907.826, 525.500 907.107 C 516.700 906.743, 508.825 906.013, 508 905.486 C 507.175 904.959, 503.075 904.268, 498.888 903.952 C 492.511 903.469, 490.611 902.887, 487.178 900.363 L 483.081 897.349 486.826 895.697 C 488.886 894.788, 494.605 893.747, 499.535 893.384 C 510.037 892.609, 514.271 890.921, 513.812 887.692 C 513.506 885.542, 513.201 885.500, 497.841 885.513 C 484.913 885.523, 481.861 885.805, 480.341 887.130 C 478.089 889.092, 468.035 890.344, 464.702 889.077 C 462.709 888.319, 462.154 887.235, 461.635 883.076 C 461.286 880.284, 460.717 875.741, 460.371 872.979 C 460.025 870.218, 459.350 867.716, 458.871 867.420 C 458.392 867.124, 458.001 864.546, 458.001 861.691 C 458.003 853.673, 456.005 839.796, 454.423 836.846 C 453.462 835.053, 452.991 830.834, 452.971 823.846 C 452.955 818.156, 452.503 807.650, 451.966 800.500 C 450.887 786.110, 452.429 732.147, 454.032 728.250 C 455.535 724.594, 458.694 725.567, 465.074 731.652 L 471 737.304 471 751.530 C 471 762.955, 470.705 766, 469.500 767 C 467.821 768.394, 467.428 775, 469.025 775 C 469.588 775, 470.477 776.125, 471 777.500 C 471.523 778.875, 472.637 780, 473.475 780 C 474.322 780, 475 780.870, 475 781.955 C 475 783.365, 474.094 784.084, 471.750 784.536 C 465.737 785.696, 459.397 793, 464.404 793 C 465.111 793, 466.505 793.900, 467.500 795 C 468.495 796.100, 470.030 797, 470.909 797 C 471.789 797, 475.754 793.850, 479.720 790 C 486.917 783.014, 488.346 782.133, 489.486 783.977 C 490.485 785.594, 488.197 792.386, 486.028 794.244 C 484.912 795.199, 484 797.124, 484 798.522 C 484 799.919, 483.363 801.307, 482.584 801.606 C 481.806 801.905, 479.954 803.903, 478.469 806.045 C 474.805 811.332, 475.574 815, 480.345 815 C 483.667 815, 488 811.705, 488 809.179 C 488 808.523, 489.064 807.062, 490.363 805.932 C 491.663 804.802, 494.701 799.742, 497.113 794.688 L 501.500 785.500 501.840 770.821 C 502.217 754.566, 501.530 751.396, 494.342 736.218 C 491.083 729.335, 486.277 724.286, 481 722.199 C 480.175 721.873, 478.707 720.604, 477.738 719.380 C 476.769 718.155, 474.666 716.866, 473.065 716.514 C 469.545 715.741, 461.290 710.416, 460.083 708.140 C 458.455 705.069, 463.690 683.619, 468.633 673.108 C 469.511 671.243, 470.461 667.980, 470.746 665.858 C 471.206 662.425, 471.028 662, 469.132 662 C 467.165 662, 467 661.473, 467 655.200 C 467 651.099, 467.495 647.905, 468.248 647.152 C 469.057 646.343, 469.420 643.402, 469.280 638.781 C 469.089 632.460, 469.427 630.974, 472.282 625.579 C 474.082 622.179, 478.416 616.635, 482.115 613 C 485.754 609.425, 489.891 604.636, 491.309 602.359 C 493.855 598.271, 501.817 592, 504.462 592 C 506.244 592, 507.393 598.836, 506.157 602.086 C 505.635 603.459, 504.486 605.181, 503.604 605.914 C 501.883 607.342, 501.407 612.516, 502.912 613.445 C 503.821 614.007, 505.465 613.213, 531 599.881 C 544.388 592.891, 553.451 586.874, 554.429 584.325 C 554.708 583.596, 555.696 583, 556.624 583 C 558.647 583, 564.102 579.026, 569.249 573.804 C 571.311 571.712, 573.501 570, 574.115 570 C 576.170 570, 588.903 557.907, 593.418 551.667 C 595.872 548.275, 598.715 544.600, 599.736 543.500 C 603.981 538.925, 608.890 532.245, 610.758 528.500 C 617.213 515.562, 620.183 511.472, 622.483 512.355 C 623.528 512.756, 624 514.337, 624 517.434 C 624 521.037, 624.616 522.632, 627.104 525.465 C 630.839 529.720, 632.816 529.875, 637.087 526.250 C 638.870 524.737, 642.386 522.375, 644.902 521 C 647.474 519.594, 649.643 517.626, 649.858 516.503 C 650.069 515.404, 651.331 513.495, 652.663 512.262 C 653.994 511.028, 656.119 507.782, 657.385 505.050 C 658.651 502.318, 660.182 499.485, 660.788 498.756 C 663.753 495.183, 668 481.949, 668 476.283 C 668 473.048, 668.404 469.973, 668.898 469.450 C 670.010 468.272, 670.839 462.334, 671.612 450 C 671.939 444.775, 672.610 440.072, 673.103 439.550 C 673.597 439.027, 674 437.596, 674 436.370 C 674 435.143, 675.387 431.144, 677.081 427.482 C 678.807 423.753, 680.406 418.335, 680.717 415.163 C 681.022 412.048, 681.602 409.050, 682.007 408.500 C 682.411 407.950, 683.333 405.025, 684.055 402 C 684.776 398.975, 686.221 395.532, 687.265 394.348 C 688.310 393.165, 689.387 390.240, 689.659 387.848 C 689.931 385.457, 690.533 382.600, 690.997 381.500 C 691.461 380.400, 692.098 377.925, 692.412 376 C 692.727 374.075, 693.472 370.475, 694.067 368 C 696.617 357.408, 697.419 345.818, 697.458 319 C 697.495 293.768, 697.299 290.110, 695.750 287.096 C 694.788 285.224, 694.005 282.299, 694.010 280.596 C 694.020 277.422, 691.363 268.380, 687.811 259.500 C 686.711 256.750, 685.463 253.150, 685.038 251.500 C 684.614 249.850, 683.563 247.150, 682.703 245.500 C 679.324 239.015, 675.054 227.057, 672.954 218.196 C 671.742 213.079, 670.131 208.274, 669.375 207.518 C 668.336 206.479, 668 202.631, 668 191.771 C 668 183.867, 668.378 176.973, 668.840 176.450 C 669.302 175.928, 670.294 173.925, 671.045 172 C 672.287 168.818, 677.044 163, 678.404 163 C 679.359 163, 689.833 156.078, 690.493 155.012 C 690.837 154.455, 692.467 154, 694.116 154 C 697.811 154, 706.161 152.036, 707.450 150.864 C 707.973 150.389, 710.728 150, 713.574 150 C 716.420 150, 720.718 149.262, 723.124 148.361 C 725.531 147.459, 729.750 146.371, 732.500 145.942 C 749.180 143.343, 752.516 143.062, 755.917 143.971 C 757.888 144.497, 765.125 145.204, 772 145.541 C 778.875 145.878, 785.467 146.621, 786.649 147.192 C 787.874 147.783, 790.667 147.935, 793.149 147.545 C 795.542 147.168, 802.220 146.554, 807.990 146.180 C 818.907 145.472, 820.650 144.546, 817.730 141 C 816.089 139.007, 810.595 136, 808.596 136 C 807.718 136, 807 135.583, 807 135.073 C 807 133.166, 768.548 122.046, 751.500 119.023 C 749.300 118.632, 745.250 117.277, 742.500 116.010 C 739.750 114.744, 736.559 113.285, 735.408 112.769 C 734.258 112.254, 732.384 109.912, 731.244 107.565 C 728.123 101.140, 718.886 91.774, 709.537 85.553 L 701.191 80 684.845 80.079 C 675.855 80.122, 667.825 80.392, 667 80.678 M 427 623.418 C 420.511 626.962, 411.423 629.882, 406.654 629.956 C 402.301 630.023, 398.531 633.353, 394.419 640.761 C 392.362 644.468, 390.076 647.860, 389.339 648.300 C 387.447 649.429, 387.656 650.982, 390.439 656.478 C 392.721 660.986, 398.137 667, 399.913 667 C 400.348 667, 402.080 668.237, 403.763 669.750 C 405.447 671.263, 408.923 674.075, 411.489 676 C 414.054 677.925, 418.735 681.546, 421.890 684.047 C 425.045 686.548, 431.710 690.684, 436.701 693.239 C 447.826 698.934, 448.489 698.663, 449.407 688.051 C 449.888 682.491, 450.552 680.134, 452.026 678.762 C 453.885 677.029, 454 675.531, 454 652.961 C 454 630.333, 453.889 628.889, 452 627 C 450.700 625.700, 448.667 625, 446.191 625 C 444.096 625, 441.509 624.339, 440.441 623.532 C 437.997 621.683, 430.296 621.618, 427 623.418" stroke="none" fill="#000000" fill-rule="evenodd"/>
</svg>